<svg xmlns="http://www.w3.org/2000/svg" viewBox="0 0 64 80" x="0px" y="0px"><title>Guitar-music-instrument-musical-sound</title><g><g data-name="34-guitar"><path d="M27.93,11.023a3.2,3.2,0,0,0,1.048,1.5L28,35.958A1,1,0,0,0,29,37h6a1,1,0,0,0,1-1.042l-.977-23.431a3.2,3.2,0,0,0,1.048-1.5A3.236,3.236,0,0,0,36.224,10H38V8H35.618L35.06,6.884l.183-.732c.013-.05.01-.1.02-.152H37V4H35.055a3.363,3.363,0,0,0-.421-.715,3.342,3.342,0,0,0-5.268,0A3.363,3.363,0,0,0,28.945,4H27V6h1.737c.01.051.007.1.02.152h0l.182.732L28.382,8H26v2h1.776A3.236,3.236,0,0,0,27.93,11.023Zm3.012-6.507a1.385,1.385,0,0,1,2.116,0A1.338,1.338,0,0,1,33.3,5.668l-.273,1.09a1,1,0,0,0,.075.689l1,2a1.234,1.234,0,0,1-.552,1.658,1,1,0,0,0-.552.937L33.957,35H30.043L31,12.042a1,1,0,0,0-.552-.937A1.234,1.234,0,0,1,29.9,9.447l1-2a1,1,0,0,0,.075-.689L30.7,5.668A1.335,1.335,0,0,1,30.942,4.516Z"/><path d="M42.74,40.266l.336-2.183A6.148,6.148,0,0,0,37,31v2a4.15,4.15,0,0,1,4.1,4.778l-.336,2.183a16.446,16.446,0,0,0,1.552,9.908A7,7,0,0,1,36.056,60h-7.1a7.473,7.473,0,0,1-6.847-10.468,16.517,16.517,0,0,0,1.2-9.141l-.4-2.613A4.15,4.15,0,0,1,27,33V31a6.148,6.148,0,0,0-6.076,7.083l.4,2.612a14.523,14.523,0,0,1-1.05,8.036A9.472,9.472,0,0,0,28.955,62h7.1a9,9,0,0,0,8.049-13.025A14.458,14.458,0,0,1,42.74,40.266Z"/><path d="M32,39a5,5,0,1,0,5,5A5.006,5.006,0,0,0,32,39Zm0,8a3,3,0,1,1,3-3A3,3,0,0,1,32,47Z"/><rect x="28" y="51" width="8" height="2"/><path d="M15.525,13.149a1,1,0,0,0-.972-.044l-4,2A1,1,0,0,0,10,16v3H9v2h2a1,1,0,0,0,1-1V16.618l2-1V18H13v2h2a1,1,0,0,0,1-1V14A1,1,0,0,0,15.525,13.149Z"/><path d="M55.758,23.03l-4,1A1,1,0,0,0,51,25v3H50v2h2a1,1,0,0,0,1-1V25.781l3.242-.811Z"/><path d="M9.553,43.105A1,1,0,0,0,9,44v4H8v2h2a1,1,0,0,0,1-1V44.618L14.447,42.9l-.894-1.79Z"/></g></g></svg>