<svg xmlns="http://www.w3.org/2000/svg" xmlns:xlink="http://www.w3.org/1999/xlink" viewBox="0 0 100 125" version="1.1" xml:space="preserve" style="" x="0px" y="0px" fill-rule="evenodd" clip-rule="evenodd" stroke-linejoin="round" stroke-miterlimit="1.41421"><g transform="matrix(1,0,0,1,15.6234,3.34374)"><path d="M40.713,52.502C40.714,52.457 40.716,52.411 40.719,52.366C40.75,51.817 40.875,51.275 41.085,50.766C41.324,50.19 41.67,49.661 42.094,49.205C42.58,48.683 43.167,48.259 43.808,47.95C44.346,47.691 44.922,47.513 45.511,47.419C45.793,47.375 46.076,47.353 46.362,47.343C46.506,47.341 46.505,47.341 46.651,47.343C46.936,47.353 47.219,47.375 47.501,47.419C48.09,47.513 48.666,47.691 49.204,47.95C49.845,48.259 50.432,48.683 50.918,49.205C51.342,49.661 51.689,50.19 51.927,50.766C52.137,51.275 52.262,51.817 52.293,52.366C52.32,52.831 52.28,53.299 52.176,53.752C52.094,54.105 51.973,54.448 51.817,54.775C51.683,55.057 51.522,55.325 51.34,55.578C50.657,56.521 49.671,57.223 48.576,57.606C47.912,57.838 47.209,57.954 46.506,57.954C45.803,57.954 45.1,57.838 44.437,57.606C44.188,57.519 43.945,57.415 43.709,57.296L43.709,78.527C43.705,78.637 43.707,78.664 43.689,78.773C43.662,78.935 43.609,79.092 43.531,79.237C43.453,79.382 43.352,79.513 43.232,79.625C42.835,79.994 42.255,80.121 41.741,79.952C41.624,79.914 41.512,79.861 41.407,79.795C41.325,79.743 41.246,79.68 41.169,79.62C41.079,79.55 41.005,79.491 40.919,79.421C40.592,79.158 40.273,78.885 39.96,78.604C39.171,77.897 38.42,77.144 37.726,76.343C37.105,75.627 36.528,74.872 36.024,74.069C35.298,72.914 34.714,71.649 34.454,70.303C34.342,69.723 34.293,69.131 34.318,68.541C34.346,67.89 34.467,67.243 34.678,66.626C34.941,65.859 35.343,65.145 35.839,64.506C36.05,64.235 36.277,63.978 36.517,63.733C36.626,63.622 36.736,63.507 36.857,63.409C37.05,63.252 37.281,63.145 37.525,63.099C37.688,63.068 37.855,63.065 38.019,63.089C38.558,63.168 39.023,63.545 39.211,64.057C39.268,64.213 39.298,64.377 39.302,64.543C39.308,64.833 39.228,65.122 39.074,65.368C39.016,65.462 38.996,65.481 38.926,65.566C38.802,65.696 38.671,65.819 38.548,65.95C38.222,66.302 37.933,66.687 37.719,67.117C37.599,67.356 37.503,67.607 37.436,67.865C37.394,68.023 37.363,68.184 37.343,68.346C37.215,69.352 37.494,70.367 37.911,71.275C37.985,71.438 38.065,71.598 38.149,71.757C38.256,71.959 38.371,72.159 38.49,72.354C38.637,72.594 38.792,72.828 38.954,73.057C39.17,73.364 39.398,73.663 39.636,73.954C39.95,74.34 40.282,74.711 40.624,75.072L40.709,75.162L40.709,52.581L40.713,52.502ZM25.184,20.99C25.199,20.989 25.214,20.988 25.229,20.987C25.292,20.985 25.356,20.986 25.419,20.987C25.66,20.996 25.898,21.017 26.135,21.059C26.746,21.168 27.333,21.399 27.855,21.734C28.494,22.144 29.032,22.708 29.411,23.366C29.742,23.941 29.949,24.585 30.016,25.245C30.029,25.365 30.036,25.486 30.039,25.606L30.039,25.613C30.047,25.723 30.045,25.834 30.039,25.947C30.034,26.05 30.025,26.153 30.015,26.256C29.865,27.669 29.198,28.971 28.389,30.117C28.265,30.293 28.137,30.466 28.005,30.637C27.644,31.107 27.258,31.557 26.858,31.995C26.387,32.51 25.896,33.006 25.396,33.492C25.075,33.804 24.749,34.111 24.421,34.415L24.421,39.472L24.43,39.473C25.233,39.491 26.028,39.633 26.783,39.91C27.793,40.28 28.715,40.879 29.466,41.648C30.218,42.418 30.795,43.355 31.14,44.375C31.392,45.118 31.515,45.896 31.52,46.68C31.519,46.738 31.519,46.738 31.516,46.797C31.515,46.807 31.514,46.818 31.513,46.829C31.513,46.862 31.512,46.894 31.511,46.927C31.499,47.308 31.471,47.688 31.418,48.066C31.315,48.802 31.129,49.527 30.864,50.222C30.32,51.651 29.445,52.947 28.326,53.989C27.293,54.951 26.058,55.69 24.721,56.143C24.622,56.177 24.522,56.209 24.421,56.239L24.421,61.009C24.419,61.058 24.419,61.108 24.414,61.156C24.409,61.212 24.4,61.268 24.388,61.323C24.388,61.351 24.388,61.378 24.388,61.406C24.386,61.529 24.382,61.652 24.374,61.775C24.349,62.168 24.292,62.558 24.203,62.942C24.157,63.145 24.101,63.345 24.036,63.543C23.955,63.795 23.859,64.043 23.75,64.284C23.32,65.234 22.682,66.087 21.894,66.77C21.167,67.4 20.315,67.883 19.4,68.18C18.682,68.413 17.934,68.527 17.179,68.532C17.121,68.531 17.121,68.531 17.063,68.528C16.914,68.514 16.77,68.483 16.632,68.431C16.357,68.403 16.084,68.351 15.818,68.275C14.6,67.929 13.551,67.087 12.946,65.974C12.743,65.6 12.59,65.198 12.494,64.782C12.441,64.55 12.405,64.313 12.386,64.076C12.386,64.063 12.385,64.051 12.384,64.039C12.351,63.94 12.328,63.837 12.317,63.733C12.297,63.551 12.309,63.364 12.327,63.183C12.375,62.716 12.51,62.26 12.723,61.843C13,61.302 13.408,60.831 13.903,60.48C14.305,60.194 14.762,59.987 15.243,59.876C15.46,59.826 15.68,59.798 15.903,59.784C15.986,59.781 16.069,59.778 16.151,59.78C16.373,59.791 16.589,59.845 16.787,59.948C17.251,60.188 17.562,60.666 17.594,61.187C17.603,61.334 17.59,61.482 17.556,61.625C17.517,61.793 17.448,61.953 17.355,62.097C17.146,62.418 16.816,62.65 16.444,62.739C16.361,62.759 16.275,62.771 16.19,62.777C16.125,62.781 16.06,62.779 15.995,62.786C15.956,62.791 15.918,62.799 15.881,62.809C15.616,62.888 15.403,63.1 15.333,63.37C15.348,63.433 15.359,63.497 15.365,63.562C15.375,63.657 15.372,63.752 15.378,63.848C15.383,63.906 15.391,63.964 15.4,64.022C15.432,64.19 15.485,64.352 15.563,64.504C15.768,64.905 16.13,65.219 16.557,65.364C16.694,65.41 16.836,65.439 16.98,65.45C17.061,65.456 17.142,65.455 17.223,65.459C17.267,65.463 17.31,65.468 17.354,65.474C17.415,65.485 17.474,65.499 17.533,65.516C17.591,65.511 17.65,65.505 17.708,65.498C18.121,65.443 18.524,65.332 18.904,65.16C19.913,64.703 20.721,63.846 21.115,62.811C21.245,62.469 21.33,62.11 21.367,61.746C21.384,61.579 21.386,61.413 21.39,61.246C21.394,61.187 21.394,61.188 21.4,61.13C21.406,61.088 21.413,61.048 21.421,61.007L21.421,56.667C21.368,56.667 21.316,56.666 21.263,56.665C20.924,56.654 20.585,56.631 20.249,56.588C19.469,56.489 18.702,56.297 17.968,56.018C16.501,55.46 15.175,54.552 14.119,53.391C13.197,52.376 12.486,51.173 12.046,49.874C11.807,49.167 11.647,48.432 11.572,47.689C11.539,47.362 11.523,47.034 11.52,46.705C11.519,46.679 11.518,46.652 11.518,46.625C11.513,46.476 11.514,46.327 11.519,46.178C11.554,45.22 11.795,44.281 12.166,43.4C12.499,42.609 12.935,41.863 13.424,41.158C14.003,40.322 14.659,39.541 15.349,38.794C16.237,37.831 17.184,36.922 18.149,36.036C19.23,35.044 20.331,34.074 21.421,33.093L21.421,24.815C21.423,24.786 21.423,24.756 21.425,24.727C21.426,24.654 21.431,24.581 21.436,24.509C21.479,23.972 21.641,23.447 21.903,22.976C22.215,22.417 22.668,21.938 23.208,21.593C23.628,21.325 24.099,21.138 24.589,21.049C24.786,21.014 24.984,20.995 25.184,20.99ZM46.429,50.342C45.972,50.358 45.523,50.454 45.11,50.653C44.822,50.791 44.555,50.977 44.331,51.206C44.145,51.397 43.988,51.619 43.879,51.863C43.792,52.059 43.736,52.269 43.718,52.484C43.704,52.646 43.711,52.811 43.739,52.972C43.763,53.113 43.803,53.251 43.858,53.383C43.907,53.502 43.968,53.617 44.038,53.725C44.552,54.516 45.507,54.932 46.429,54.953C47.366,54.974 48.348,54.594 48.909,53.819C48.986,53.713 49.053,53.6 49.11,53.482C49.172,53.353 49.22,53.216 49.252,53.077C49.293,52.9 49.308,52.718 49.298,52.538C49.286,52.323 49.236,52.111 49.154,51.913C49.053,51.667 48.903,51.444 48.722,51.25C48.506,51.017 48.245,50.827 47.962,50.682C47.579,50.487 47.162,50.383 46.735,50.349C46.633,50.343 46.531,50.341 46.429,50.342ZM21.421,37.12C21.246,37.277 21.07,37.434 20.895,37.592C20.538,37.916 20.182,38.241 19.828,38.569C19.318,39.047 18.812,39.529 18.321,40.027C17.96,40.392 17.606,40.765 17.264,41.148C16.989,41.456 16.721,41.771 16.464,42.094C16.304,42.297 16.147,42.504 15.997,42.715C15.872,42.89 15.751,43.067 15.635,43.248C15.339,43.71 15.075,44.195 14.873,44.706C14.712,45.112 14.593,45.537 14.542,45.973C14.517,46.179 14.511,46.386 14.518,46.593C14.525,46.709 14.522,46.825 14.525,46.94C14.531,47.059 14.538,47.178 14.548,47.297C14.617,48.018 14.788,48.723 15.07,49.391C15.432,50.246 15.967,51.027 16.631,51.676C17.297,52.325 18.09,52.841 18.955,53.183C19.519,53.405 20.113,53.553 20.715,53.622C20.892,53.643 21.07,53.656 21.249,53.663C21.306,53.665 21.364,53.666 21.421,53.667L21.421,51.833C21.295,51.803 21.171,51.769 21.047,51.731C19.703,51.312 18.552,50.365 17.88,49.128C17.646,48.698 17.471,48.237 17.361,47.76C17.299,47.493 17.258,47.222 17.237,46.949C17.223,46.758 17.209,46.56 17.23,46.368C17.233,46.279 17.237,46.19 17.242,46.101C17.28,45.512 17.391,44.927 17.574,44.365C17.874,43.44 18.368,42.58 19.014,41.853C19.68,41.102 20.506,40.495 21.421,40.084L21.421,37.12ZM24.421,42.475L24.421,47.886C24.455,47.816 24.484,47.745 24.509,47.672C24.555,47.536 24.585,47.396 24.599,47.254C24.61,47.152 24.608,47.05 24.614,46.948C24.617,46.903 24.623,46.859 24.629,46.814C24.656,46.666 24.699,46.524 24.766,46.389C24.934,46.052 25.228,45.786 25.579,45.653C25.72,45.6 25.867,45.571 26.016,45.559C26.061,45.557 26.106,45.557 26.151,45.557C26.331,45.565 26.508,45.599 26.675,45.667C26.8,45.718 26.918,45.786 27.024,45.868C27.119,45.941 27.205,46.025 27.28,46.119C27.449,46.329 27.559,46.585 27.596,46.852C27.616,47.003 27.611,47.157 27.603,47.308C27.591,47.556 27.559,47.803 27.51,48.046C27.421,48.481 27.272,48.902 27.07,49.297C26.515,50.38 25.559,51.233 24.421,51.662L24.421,53.039C25.205,52.68 25.92,52.175 26.522,51.558C27.172,50.893 27.688,50.099 28.029,49.234C28.252,48.67 28.4,48.077 28.469,47.474C28.489,47.297 28.503,47.119 28.51,46.941C28.514,46.823 28.513,46.706 28.517,46.589L28.517,46.587C28.516,46.53 28.515,46.474 28.512,46.418C28.505,46.329 28.497,46.24 28.486,46.151C28.431,45.738 28.32,45.336 28.148,44.956C27.691,43.946 26.835,43.139 25.799,42.745C25.457,42.615 25.098,42.53 24.734,42.493C24.63,42.483 24.526,42.478 24.421,42.475ZM21.421,43.672C21.006,44.089 20.68,44.594 20.476,45.15C20.36,45.468 20.283,45.799 20.249,46.136C20.239,46.24 20.232,46.344 20.229,46.449C20.228,46.512 20.228,46.575 20.225,46.638C20.226,46.666 20.227,46.694 20.229,46.721C20.234,46.783 20.241,46.844 20.25,46.906C20.289,47.143 20.357,47.373 20.462,47.59C20.671,48.024 21.009,48.389 21.421,48.635L21.421,43.672ZM55.758,13.288C55.772,13.288 55.79,13.288 55.814,13.289L55.826,13.29L55.836,13.29C55.931,13.301 55.955,13.301 56.048,13.321L56.091,13.331L56.126,13.34L56.141,13.344C56.213,13.365 56.284,13.391 56.352,13.422C56.375,13.432 56.397,13.443 56.419,13.455C56.473,13.483 56.526,13.514 56.576,13.549C56.701,13.634 56.813,13.738 56.906,13.857C56.964,13.93 57.015,14.009 57.058,14.091C57.103,14.178 57.141,14.269 57.168,14.364C57.184,14.417 57.196,14.47 57.205,14.524C57.219,14.602 57.227,14.682 57.228,14.761C57.229,14.77 57.229,14.778 57.229,14.787L57.229,34.069L57.231,34.091C57.257,34.556 57.218,35.024 57.113,35.477C57.031,35.83 56.91,36.173 56.754,36.5C56.62,36.782 56.459,37.05 56.277,37.303C55.594,38.246 54.608,38.948 53.513,39.331C52.849,39.563 52.146,39.679 51.443,39.679C50.74,39.679 50.037,39.563 49.374,39.331C48.278,38.948 47.292,38.246 46.61,37.303C46.427,37.05 46.266,36.782 46.132,36.5C45.976,36.173 45.855,35.83 45.774,35.477C45.669,35.024 45.629,34.556 45.656,34.091C45.687,33.542 45.812,33 46.022,32.491C46.261,31.915 46.607,31.386 47.031,30.93C47.517,30.408 48.104,29.984 48.746,29.675C49.283,29.416 49.859,29.238 50.448,29.144C50.73,29.1 51.014,29.078 51.299,29.068C51.444,29.066 51.443,29.066 51.588,29.068C51.873,29.078 52.156,29.1 52.438,29.144C53.027,29.238 53.603,29.416 54.141,29.675C54.17,29.689 54.2,29.703 54.229,29.718L54.229,22.105L43.321,24.183L43.457,35.854C43.461,35.898 43.464,35.942 43.467,35.986C43.493,36.451 43.454,36.919 43.349,37.372C43.267,37.725 43.147,38.068 42.991,38.395C42.856,38.677 42.696,38.945 42.513,39.198C41.83,40.141 40.845,40.843 39.749,41.226C39.085,41.458 38.382,41.574 37.679,41.574C36.976,41.574 36.274,41.458 35.61,41.226C34.514,40.843 33.528,40.141 32.846,39.198C32.663,38.945 32.503,38.677 32.368,38.395C32.212,38.068 32.091,37.725 32.01,37.372C31.905,36.919 31.865,36.451 31.892,35.986C31.923,35.437 32.048,34.895 32.259,34.386C32.497,33.81 32.843,33.281 33.268,32.825C33.754,32.303 34.34,31.879 34.982,31.57C35.519,31.311 36.095,31.133 36.685,31.039C36.967,30.995 37.25,30.973 37.535,30.963C37.679,30.961 37.679,30.961 37.824,30.963C38.109,30.973 38.392,30.995 38.674,31.039C39.263,31.133 39.839,31.311 40.377,31.57C40.387,31.574 40.397,31.579 40.407,31.584L40.241,17.426L40.241,17.425C40.24,17.301 40.254,17.176 40.283,17.055C40.293,17.015 40.305,16.975 40.318,16.936L40.318,16.936L40.318,16.936L40.318,16.933L40.319,16.931C40.321,16.925 40.323,16.918 40.326,16.912C40.331,16.897 40.336,16.882 40.342,16.867L40.343,16.866L40.343,16.866L40.344,16.862L40.346,16.857C40.376,16.781 40.412,16.708 40.454,16.638C40.547,16.482 40.669,16.344 40.811,16.231C40.934,16.134 41.073,16.056 41.22,16.002L41.22,16.002L41.221,16.002L41.225,16L41.229,15.999L41.231,15.998L41.232,15.998L41.233,15.997L41.238,15.995L41.241,15.994L41.244,15.993L41.249,15.992L41.249,15.991L41.251,15.991L41.254,15.99L41.257,15.989L41.258,15.988L41.261,15.987L41.262,15.987C41.271,15.984 41.28,15.981 41.289,15.978C41.366,15.954 41.386,15.951 41.465,15.934L55.453,13.312C55.542,13.298 55.542,13.298 55.633,13.29C55.668,13.289 55.689,13.288 55.707,13.287C55.715,13.287 55.722,13.287 55.729,13.287L55.758,13.288ZM40.459,36.026C40.438,35.857 40.393,35.691 40.328,35.533C40.226,35.287 40.076,35.064 39.896,34.87C39.679,34.637 39.418,34.447 39.135,34.302C38.753,34.107 38.336,34.003 37.909,33.969C37.806,33.963 37.705,33.961 37.602,33.962C37.146,33.978 36.697,34.074 36.284,34.273C35.995,34.411 35.729,34.597 35.505,34.826C35.318,35.017 35.161,35.239 35.053,35.483C34.965,35.679 34.91,35.889 34.891,36.103C34.877,36.266 34.884,36.431 34.912,36.592C34.936,36.733 34.977,36.871 35.031,37.003C35.081,37.122 35.141,37.237 35.212,37.345C35.726,38.136 36.68,38.552 37.602,38.573C38.539,38.594 39.521,38.214 40.082,37.439C40.159,37.333 40.227,37.22 40.283,37.102C40.345,36.973 40.393,36.836 40.426,36.697C40.451,36.586 40.467,36.474 40.472,36.361C40.465,36.301 40.465,36.272 40.461,36.195L40.459,36.026ZM54.229,34.186C54.211,33.998 54.164,33.813 54.091,33.638C53.99,33.392 53.84,33.169 53.659,32.975C53.443,32.742 53.182,32.552 52.899,32.407C52.516,32.212 52.099,32.108 51.672,32.074C51.57,32.068 51.468,32.066 51.366,32.067C50.909,32.083 50.46,32.179 50.047,32.378C49.759,32.516 49.492,32.702 49.268,32.931C49.082,33.122 48.925,33.344 48.816,33.588C48.729,33.784 48.673,33.994 48.655,34.208C48.641,34.371 48.648,34.536 48.676,34.697C48.7,34.838 48.74,34.976 48.795,35.108C48.844,35.227 48.905,35.342 48.976,35.45C49.489,36.241 50.444,36.657 51.366,36.678C52.303,36.699 53.285,36.319 53.846,35.544C53.923,35.438 53.991,35.325 54.047,35.207C54.109,35.078 54.157,34.941 54.19,34.802C54.223,34.655 54.24,34.505 54.238,34.355C54.231,34.297 54.232,34.266 54.229,34.19L54.229,34.186ZM25.352,23.986C25.289,23.99 25.227,23.988 25.164,23.995C25.125,24.001 25.086,24.009 25.048,24.02C24.767,24.104 24.526,24.331 24.45,24.618C24.426,24.706 24.425,24.796 24.421,24.885L24.421,30.21C24.45,30.18 24.478,30.15 24.506,30.119C25.055,29.529 25.577,28.913 26.035,28.248C26.249,27.937 26.445,27.611 26.612,27.272C26.796,26.898 26.945,26.502 27.011,26.089C27.028,25.982 27.038,25.876 27.043,25.769C27.04,25.695 27.038,25.622 27.031,25.548C27.025,25.49 27.016,25.433 27.005,25.376C26.969,25.209 26.913,25.049 26.831,24.899C26.616,24.503 26.247,24.197 25.816,24.063C25.691,24.025 25.563,24 25.433,23.99C25.406,23.988 25.379,23.987 25.352,23.986ZM43.256,18.651L43.285,21.136L54.229,19.051L54.229,16.594L43.256,18.651Z"/></g></svg>