<svg xmlns="http://www.w3.org/2000/svg" data-name="Layer 1" viewBox="0 0 100 125" x="0px" y="0px"><title>Artboard 7</title><path d="M12.54,71a33.93,33.93,0,0,0,6.29,3.3L17.18,92a2.5,2.5,0,0,0,2.26,2.72h.24a2.5,2.5,0,0,0,2.49-2.27L23.7,75.88c1.11.28,2.23.54,3.4.74a55.44,55.44,0,0,0,9.46.83q2.31,0,4.57-.21a9.78,9.78,0,0,0,8.61-12,10.6,10.6,0,0,1,.56-2.92L50.79,61a4.5,4.5,0,0,0-.26-3.56,4.41,4.41,0,0,0-2.72-2.21c-3.85-1.06-6.24-3.06-6.93-5.77A36.38,36.38,0,0,0,52.72,49a2.5,2.5,0,0,0,1.92-2.32L55,39.58a14.33,14.33,0,0,0,6-3.23,6.58,6.58,0,0,0,1.43-7.72,8,8,0,0,0-3.06-3.11,15,15,0,0,1-6.91-13.24,40.5,40.5,0,0,0,0-4.67,2.5,2.5,0,0,0-5,.34,35.3,35.3,0,0,1,0,4.1A19.91,19.91,0,0,0,56.59,29.7a4.25,4.25,0,0,1,1.31,1.11,1.61,1.61,0,0,1-.34,1.88A10.56,10.56,0,0,1,52.1,35.1,2.5,2.5,0,0,0,50,37.46l-.31,7a32.38,32.38,0,0,1-8.49,0,4.79,4.79,0,0,0-5.32,5.74c.56,2.67,2.6,7.42,10,9.67l-.3.86a13.87,13.87,0,0,0-.79,5.3,2.61,2.61,0,0,0,.06.31,4.79,4.79,0,0,1-.72,4,4.74,4.74,0,0,1-3.45,2A48.51,48.51,0,0,1,28,71.69a32.42,32.42,0,0,1-12.63-4.84A17,17,0,0,1,9.56,61a2.5,2.5,0,0,0-4.42,2.33A21.87,21.87,0,0,0,12.54,71Z"/><path d="M60.38,61.69a2.5,2.5,0,1,0,2.68,4.22,12.4,12.4,0,0,0,4.22-16.36,2.5,2.5,0,1,0-4.39,2.4A7.39,7.39,0,0,1,60.38,61.69Z"/><path d="M70.83,76a2.49,2.49,0,0,0,1.56-.55A25.64,25.64,0,0,0,80,45.73a2.5,2.5,0,0,0-4.62,1.91,20.62,20.62,0,0,1-6.16,23.88A2.5,2.5,0,0,0,70.83,76Z"/><path d="M89.42,40.31A2.5,2.5,0,0,0,88,43.54a33.73,33.73,0,0,1-9.71,37.63A2.5,2.5,0,1,0,81.49,85,38.74,38.74,0,0,0,92.64,41.76,2.5,2.5,0,0,0,89.42,40.31Z"/></svg>