<svg xmlns="http://www.w3.org/2000/svg" xmlns:xlink="http://www.w3.org/1999/xlink" version="1.1" x="0px" y="0px" viewBox="0 0 303.306 298.40625" style="enable-background:new 0 0 303.306 238.725;" xml:space="preserve"><g><path d="M105.571,60.5c-0.075,0.392-0.156,0.772-0.235,1.154l2.073,4.885c0.446-0.284,0.891-0.577,1.332-0.884   c7.629-5.272,14.199-13.769,18.88-25.92l11.5,4.756l1.798-4.346l-12.877-5.326c-0.582-2.5-2.354-4.676-4.931-5.663   c-2.434-0.932-5.036-0.588-7.091,0.691l-5.037-2.083l0.948-2.293l-3.621-1.498l-3.694,8.932l3.621,1.498l0.95-2.293l3.657,1.513   c-0.021,0.049-0.045,0.095-0.064,0.145c-3.232,8.39-7.05,13.614-10.901,16.972C104.743,52.974,106.297,56.692,105.571,60.5z"/><polygon points="116.664,152.68 123.566,152.68 123.564,238.536 138.512,238.536 138.512,166.735 217.902,166.735 217.902,238.536    232.848,238.536 232.85,152.68 239.75,152.68 239.75,146.274 116.664,146.274  "/><path d="M76.276,30.708l1.298-0.551l14.665-6.223c0.311-10.481-6.78-20.078-17.386-22.546C62.753-1.431,50.659,6.094,47.841,18.192   c-2.816,12.1,4.709,24.193,16.809,27.01c4.284,0.998,8.565,0.693,12.437-0.646l-0.727-12.442L76.276,30.708z"/><path d="M42.141,138.766c2.156,5.382,7.048,19.802,7.027,39.382c-0.003,12.593-1.979,27.331-7.96,43.495   c-2.397,6.475,0.907,13.667,7.382,16.063c1.431,0.529,2.897,0.781,4.338,0.781c5.082,0.001,9.858-3.12,11.725-8.163   c7.093-19.148,9.521-36.954,9.517-52.176c-0.024-24.669-6.256-42.503-9.184-49.554c0.012-1.113-0.022-2.333-0.101-3.675   c-1.648-12.298,0.37-26.062,2.655-38.032c-3.85-1.61-7.314-3.816-10.56-6.111c-4.603-3.368-7.89-6.623-9.092-7.869L47.88,72.9   l-0.074-0.081c-1.833-1.943-2.797-4.484-2.719-7.155c0.078-2.67,1.193-5.15,3.139-6.981c1.861-1.755,4.296-2.724,6.857-2.724   c2.744,0,5.397,1.146,7.28,3.143c0.12,0.125,0.214,0.22,0.341,0.343c0.301,0.303,0.746,0.735,1.318,1.263   c1.053,0.975,2.728,2.439,4.729,3.896c3.914,2.979,8.352,4.809,10.236,4.809l0.134-0.004c1.254-0.083,1.386-0.091,2.469-1.193   c0.609-0.661,2.853-3.58,4.334-11.44c-0.236,0.006-0.471,0.022-0.708,0.023c-5.473,0.015-10.975-1.484-15.008-3.05   c-2.015-0.777-3.663-1.559-4.768-2.124c-0.552-0.282-0.968-0.512-1.227-0.658c-0.13-0.072-0.222-0.125-0.27-0.155   c-0.007-0.004-0.014-0.008-0.019-0.011c-0.943-0.576-1.958-0.935-2.986-1.088c-0.06-0.016-0.117-0.036-0.178-0.051   c-8.537-2.129-20.912,2.508-25.947,17.15c-6.805,20.174-8.268,33.305-5.682,55.519C31.116,132.549,36.286,136.945,42.141,138.766z"/><path d="M148.388,49.198c0,0,0.739,6.161,1.232,7.841c0.492,1.68,3.693,5.321,1.723,10.081c-1.969,4.761,7.879,7.279,13.049,4.48   c3.475-1.883,2.277,2.561,0.147,6.526c-7.552,2.89-28.519,11.692-31.788,21.501c-4,12,5.25,16.25,4.25,20.75   s-5.25,11.75-5.25,11.75h98c0,0-17.5-13-15-20.5s3-18,2-23.5c-0.928-5.104-4.659-15.797-14.582-13.715   c-6.792-7.785-5.941-18.49-1.585-29.695c5.663-14.562,3.941-27.441-3.2-36.963c-7.14-9.522-31.761-10.922-41.855-0.561   c-10.094,10.361-6.401,27.723-6.401,27.723s-4.432,5.601-5.909,12.041C141.74,53.398,148.388,49.198,148.388,49.198z"/><rect x="129.25" y="137.127" width="102" height="5.5"/><path d="M100.78,75.239l1.342,3.162l6.904-2.929L104.57,64.97C103.563,68.897,102.316,72.292,100.78,75.239z"/><path d="M95.742,48.625c0.625,0,1.259,0.059,1.88,0.178c0.033,0.006,0.064,0.017,0.098,0.024l-3.537-8.336l8.055-3.418   l-5.47-12.889l-18.41,7.814l0.865,14.84l8.055-3.418l2.925,6.893C91.8,49.245,93.71,48.625,95.742,48.625z"/><path d="M67.57,66.222c-1.983-1.446-3.712-2.939-4.905-4.042c-0.6-0.553-1.066-1.006-1.368-1.309   c-0.15-0.15-0.263-0.262-0.328-0.332c-0.063-0.064-0.063-0.066-0.063-0.066c-3.03-3.214-8.093-3.367-11.309-0.334   c-3.217,3.03-3.367,8.092-0.335,11.309H49.26c0.218,0.22,3.646,3.869,8.876,7.697c5.28,3.732,12.217,8.103,21.105,8.259   c0.115,0.002,0.231,0.003,0.347,0.003c5.271,0.001,11.214-2.354,15.343-7.111c4.273-4.819,6.983-11.391,8.677-20.171   c0.826-4.341-2.022-8.529-6.36-9.356c-4.341-0.826-8.531,2.022-9.356,6.362c-1.328,7.061-3.39,10.879-4.876,12.488   c-1.54,1.566-2.169,1.681-3.773,1.787C76.639,71.562,71.498,69.21,67.57,66.222z"/><polygon points="138.181,59.252 133.99,59.322 131.375,60.919 132.208,64.323 137.972,64.877  "/><polygon points="147.082,231.55 148.251,238.544 159.039,238.725 159.418,228.53 151.822,228.655  "/><polygon points="279.634,238.461 287,227.377 280.439,216.795 264.299,217.063 254.227,223.214 256.709,238.077  "/><polygon points="103.702,227.204 98.955,231.422 98.125,236.752 103.875,238.002 112.14,236.696 108.479,230.041  "/><polygon points="36.015,236.696 32.354,230.041 27.577,227.204 22.83,231.422 22,236.752 27.75,238.002  "/><polygon points="8.75,231.002 3.455,231.422 0,237.252 8.375,238.002 16.64,236.696 12.978,230.041  "/><polygon points="295.041,238.002 303.306,236.696 299.645,230.041 295.416,231.002 290.121,231.422 286.666,237.252  "/><polygon points="238.154,237.439 243.217,238.54 250.495,237.389 247.27,231.529 243.065,229.032 238.885,232.747  "/><polygon points="203.24,213.911 197.584,218.961 196.084,228.794 190.584,237.127 212.707,238.059 210.39,222.718  "/><polygon points="182.83,223.263 177.584,227.461 172.417,224.554 166.334,229.229 169.316,237.479 183.814,237.321 187.25,229.002     "/><polygon points="87.585,217.376 77.76,221.008 73.084,231.627 78.075,238.317 94.852,237.022 93.22,224.598  "/><polygon points="139.84,70.14 142.447,70.954 145.946,70.521 145.139,67.329 141.467,64.924 139.826,67.751  "/><polygon points="133.73,74.463 133.74,76.083 135.506,76.633 137.876,76.34 137.329,74.178 134.842,72.549  "/></g></svg>